<svg width="256" height="256" viewBox="0 0 256 256" fill="none" xmlns="http://www.w3.org/2000/svg">
<path fill-rule="evenodd" clip-rule="evenodd" d="M132.48 13.76V17.9201C144 17.9201 171.521 22.784 195.072 43.2845C197.082 45.0343 197.731 45.3939 198.474 45.1687C199.844 44.7539 200.53 43.4183 200.035 42.1293C199.889 41.7492 193.217 36.3348 190.336 34.2586C175.875 23.8368 156.48 14.72 132.48 13.76ZM222.871 99.776C224.26 103.002 226.393 109.997 226.948 113.153C227.104 114.042 227.092 114.056 225.489 114.849C221.318 116.912 218.463 120.117 217.08 124.288C216.754 125.274 216.334 126.443 216.147 126.886C215.703 127.942 215.713 130.426 216.163 131.145C216.358 131.457 216.596 132.173 216.692 132.736C217.366 136.711 222.061 142.293 226.145 143.976L227.138 144.385L226.968 145.663C226.774 147.13 225.247 151.867 223.711 155.771C222.4 159.1 222.438 159.232 224.72 159.232H226.48L227.779 156.48C228.909 154.086 230.544 149.374 231.409 146.022L231.679 144.972L233.81 144.808C242.749 144.121 249.345 135.815 248.1 126.816C247.089 119.512 241.146 114.242 233.072 113.488C231.766 113.366 231.424 113.245 231.424 112.907C231.424 112.381 230.592 109.152 229.706 106.24C229.342 105.043 228.493 102.883 227.819 101.44L226.596 98.816H222.457L222.871 99.776ZM234.979 118.031C243.764 120.057 246.849 130.772 240.486 137.157C233.711 143.954 222.853 140.413 220.749 130.719C219.147 123.336 227.126 116.221 234.979 118.031ZM160.439 123.374C159.306 124.101 158.993 124.697 158.984 126.148C158.959 130.379 165.199 130.763 165.55 126.552C165.785 123.738 162.783 121.872 160.439 123.374ZM230.735 125.542C226.806 127.401 227.978 133.213 232.273 133.175C237.666 133.126 238.144 126.037 232.821 125.052C232.314 124.959 231.625 125.12 230.735 125.542ZM152.584 126.486C151.189 127.424 149.248 129.165 149.248 129.478C149.248 129.801 151.142 132.483 152.499 134.08C155.187 137.246 163.81 138.936 167.338 136.989C167.596 136.846 168.251 136.533 168.792 136.292C170.775 135.411 175.064 130.541 174.805 129.462C174.715 129.087 170.961 125.658 170.808 125.811C170.759 125.86 170.552 126.612 170.349 127.482C168.353 136.042 155.798 135.711 154.005 127.05L153.728 125.717L152.584 126.486ZM197.248 204.122C188.043 206.78 190.9 220.594 200.377 219.253C206.437 218.395 209.283 211.751 205.702 206.819C203.96 204.417 200.285 203.245 197.248 204.122ZM201.42 208.632C202.735 209.584 203.008 210.093 203.008 211.592C203.008 215.272 198.558 216.538 196.305 213.498C194.028 210.425 198.293 206.367 201.42 208.632Z" fill="#007BFF"/>
<path fill-rule="evenodd" clip-rule="evenodd" d="M160.439 123.374C159.306 124.101 158.993 124.697 158.984 126.148C158.959 130.379 165.199 130.763 165.55 126.552C165.785 123.738 162.783 121.872 160.439 123.374ZM152.584 126.486C151.189 127.424 149.248 129.165 149.248 129.478C149.248 129.801 151.142 132.483 152.499 134.08C155.187 137.246 163.81 138.936 167.338 136.989C167.596 136.846 168.251 136.533 168.792 136.292C170.775 135.411 175.064 130.541 174.805 129.462C174.715 129.087 170.961 125.658 170.808 125.811C170.759 125.86 170.552 126.612 170.349 127.482C168.353 136.042 155.798 135.711 154.005 127.05L153.728 125.717L152.584 126.486Z" fill="#007BFF"/>
<path fill-rule="evenodd" clip-rule="evenodd" d="M132.352 37.8925L138.958 44.61C142.591 48.3053 146.997 52.8257 148.746 54.6561C150.497 56.4865 153.769 59.8561 156.018 62.1441L160.108 66.3041H166.972L163.037 62.1729C160.874 59.9009 158.249 57.1073 157.205 55.9649C150.318 48.4359 145.774 43.3479 145.093 42.4033L144.565 41.6705L145.434 41.8548C148.024 42.4033 150.016 43.4292 150.016 44.2145C150.016 44.6426 151.469 46.0193 152.15 46.2356C152.844 46.4557 160.941 54.409 170.954 64.7041L172.509 66.3041H176.125C179.597 66.3041 179.728 66.2855 179.407 65.8285C176.515 61.7191 158.17 42.8839 154.888 40.6535C149.513 37.0023 142.113 34.5639 135.117 34.1389L132.352 33.9713V37.8925ZM132.361 49.9841L132.37 53.6321L135.241 56.7309C139.132 60.9313 144.886 67.0113 148.608 70.8545C150.298 72.5997 151.713 74.1159 151.753 74.2247C151.793 74.3335 147.445 78.7489 142.089 84.0372L132.352 93.6513V97.5137C132.352 99.6378 132.433 101.376 132.533 101.376C132.632 101.376 134.389 99.7357 136.437 97.7306C138.485 95.7261 142.81 91.4906 146.048 88.3188C149.286 85.1469 153.146 81.4324 154.624 80.0641L157.312 77.5764L175.555 77.5681L176.611 78.7482C179.494 81.9687 186.88 89.3562 186.88 89.0183C186.88 86.1409 184.449 77.5917 182.513 73.6641L181.914 72.4481L157.824 72.4455L151.168 65.4829C147.507 61.6532 142.937 56.9018 141.013 54.9242C139.088 52.946 136.449 50.2049 135.149 48.8321C133.85 47.4593 132.688 46.3361 132.569 46.3361C132.449 46.3361 132.356 47.9777 132.361 49.9841ZM213.886 62.4679C213.841 62.5402 213.721 63.9553 213.619 65.6116L213.434 68.6247L211.155 70.4218C209.901 71.4106 208.128 72.8973 207.213 73.7261L205.551 75.2327L196.051 75.3921L195.434 76.1101C193.276 78.6209 195.237 79.8721 201.329 79.8721H205.554L207.674 81.8561C208.839 82.9473 210.627 84.5767 211.648 85.4772L213.504 87.1143L213.508 89.5732C213.51 90.9255 213.604 92.1773 213.717 92.3546C213.878 92.6081 216.29 92.6631 224.913 92.6106L235.904 92.5441L235.97 77.7108C236.011 68.5729 235.942 62.7841 235.793 62.6343C235.542 62.3841 214.039 62.2202 213.886 62.4679ZM226.668 67.2967C226.745 67.4196 224.975 69.8055 222.735 72.5972C219.153 77.0625 218.696 77.7364 218.941 78.194C219.202 78.6823 222.031 82.0141 225.715 86.1735L227.329 87.9943L226.14 88.1575C225.487 88.2471 224.219 88.3201 223.322 88.3201H221.692L219.35 86.2081C218.061 85.0465 215.729 82.9863 214.168 81.6308C210.178 78.1664 209.239 77.2993 209.56 77.3741C209.925 77.4599 219.03 69.6468 218.938 69.3268C218.899 69.1924 218.959 69.1393 219.073 69.209C219.185 69.2781 219.85 68.8308 220.55 68.2138L221.824 67.0919L224.177 67.0817C225.471 67.0765 226.592 67.1732 226.668 67.2967ZM202.037 79.5501C201.01 79.5988 199.397 79.5988 198.453 79.5495C197.509 79.5002 198.349 79.4605 200.32 79.4612C202.291 79.4612 203.064 79.5015 202.037 79.5501ZM159.616 83.762C158.98 84.1223 154.178 88.7879 141.889 100.984L132.352 110.448V115.256C132.352 117.9 132.415 120.064 132.492 120.064C132.568 120.064 134.188 118.511 136.09 116.614C144.925 107.805 153.465 105.325 168.759 107.129C175.99 107.982 182.033 110.922 186.597 115.808C187.601 116.883 187.648 116.537 187.648 108.051C187.648 98.7252 187.996 100.112 184.727 96.3841C182.415 93.7479 181.095 92.3028 177.024 87.9591C175.194 86.0065 173.546 84.194 173.361 83.9322C172.957 83.3569 160.6 83.2039 159.616 83.762ZM171.532 90.4321C172.008 91.0305 174.22 93.4861 176.445 95.8887C178.672 98.2912 180.67 100.509 180.885 100.817L181.277 101.376H149.475L149.85 100.84C150.056 100.546 152.666 97.8388 155.648 94.8244L161.07 89.3441H170.666L171.532 90.4321ZM194.181 99.9117C192.945 101.148 193.368 103.267 195.058 104.312C195.21 104.405 197.197 106.692 199.475 109.393C207.237 118.597 208.767 120.003 212.053 120.958C216.421 122.228 216.778 118.592 212.52 116.2C210.621 115.133 206.774 111.208 202.752 106.231C196.792 98.8583 195.896 98.1972 194.181 99.9117ZM158.08 112.801C145.213 114.195 137.176 121.026 137.11 130.623C137.084 134.472 137.248 134.378 134.742 131.968C133.644 130.912 132.715 130.048 132.677 130.048C132.639 130.048 132.608 136.327 132.608 144.001V157.954L135.616 161.178C137.27 162.95 138.662 164.505 138.709 164.632C138.757 164.762 137.439 164.864 135.701 164.864H132.608V170.513L143.959 170.46L149.292 175.788C152.225 178.718 154.624 181.203 154.624 181.309C154.624 181.416 151.414 181.504 147.49 181.504H140.355L140.231 179.567C140.055 176.824 139.999 176.787 135.937 176.684L132.627 176.6L132.554 182.316C132.513 185.46 132.485 188.056 132.49 188.085C132.495 188.113 137.651 188.218 143.946 188.317C150.241 188.416 155.392 188.528 155.392 188.566C155.392 188.604 154.154 189.821 152.64 191.272C151.126 192.723 146 197.8 141.248 202.556L132.608 211.203V225.346L134.667 225.167C139.285 224.764 143.797 222.91 148.298 219.566C149.222 218.879 156.481 211.616 167.206 200.648C174.586 193.1 175.419 192.328 176.55 191.989L177.792 191.616L177.932 181.937L173.613 177.609L174.831 176.549C175.5 175.965 177.401 174.346 179.054 172.95C182.76 169.821 183.286 168.762 183.295 164.416C183.296 164.191 182.779 164.096 181.562 164.096H179.829L177.261 166.336C173.569 169.557 172.406 170.506 170.853 171.56L169.473 172.497L163.153 166.056C159.677 162.514 153.34 156.16 149.069 151.936C142.104 145.045 141.307 144.172 141.309 143.439C141.311 142.99 141.197 142.551 141.056 142.464C140.753 142.277 140.708 141.056 141.004 141.056C141.116 141.056 141.663 141.527 142.22 142.102C147.523 147.587 153.307 149.327 164.703 148.867C186.615 147.981 194.828 124.975 176.477 115.88C171.834 113.579 163.61 112.202 158.08 112.801ZM166.656 118.284C174.921 120.261 181.525 125.983 180.711 130.464C180.104 133.807 177.579 137.188 172.513 141.439L170.223 143.36H160.531C149.697 143.36 150.528 143.519 150.528 141.45C150.528 140.419 150.426 140.261 148.88 138.904C143.595 134.264 141.812 129.417 144.163 126.08C148.495 119.928 158.717 116.385 166.656 118.284ZM216.32 126.037C216.32 126.428 215.5 126.464 206.579 126.464C195.053 126.464 195.072 126.46 195.072 128.89C195.072 129.541 195.283 129.924 195.977 130.534L196.882 131.328H216.081L216.312 131.904C216.456 132.262 216.55 132.329 216.56 132.081C216.569 131.862 216.407 131.459 216.2 131.185C215.683 130.502 215.699 127.925 216.225 126.813C216.455 126.33 216.57 125.861 216.481 125.772C216.393 125.683 216.32 125.803 216.32 126.037ZM210.608 136.986C209.071 137.797 206.42 140.695 202.239 146.138C196.324 153.835 194.582 156.061 192.709 158.313C190.774 160.638 190.529 161.539 191.564 162.511C192.956 163.82 194.981 163.365 196.39 161.429C196.862 160.781 197.939 159.343 198.784 158.234C199.629 157.126 202.017 153.988 204.09 151.261C209 144.805 210.764 142.732 212.48 141.403C215.373 139.161 215.593 138.68 214.377 137.236C213.569 136.275 212.135 136.18 210.608 136.986ZM138.63 148.224C139.151 148.858 141.731 151.622 144.362 154.368C150.93 161.224 158.29 169.062 163.584 174.838C165.062 176.451 167.224 178.796 168.386 180.049C169.549 181.302 170.55 182.575 170.613 182.876C170.674 183.178 170.794 183.966 170.88 184.629C170.999 185.549 171.221 185.99 171.816 186.491L172.597 187.147L171.64 188.314C171.115 188.956 168.199 192.035 165.162 195.156C162.124 198.278 158.136 202.394 156.3 204.302C154.463 206.21 151.771 209.004 150.317 210.509L147.674 213.248H143.484C140.938 213.248 139.231 213.146 139.134 212.989C138.95 212.692 140.945 210.609 154.88 196.538C160.442 190.923 165.089 186.157 165.206 185.947C165.681 185.101 163.948 183.097 152.062 170.752C148.876 167.443 144.233 162.614 141.743 160.019L137.216 155.302V150.944C137.216 148.329 137.309 146.683 137.448 146.829C137.576 146.963 138.108 147.59 138.63 148.224ZM163.699 153.314C163.636 153.377 163.584 154.735 163.584 156.331V159.232H184.539L184.678 157.888C184.755 157.149 184.888 155.756 184.975 154.792L185.134 153.041L174.474 153.12C168.611 153.164 163.763 153.251 163.699 153.314ZM41.0215 165.885C40.4173 166.852 40.6368 168.02 41.6519 169.234C42.592 170.359 45.8887 174.052 48.1491 176.512C48.7962 177.216 49.8157 178.335 50.4147 178.999L51.504 180.205L48.4948 183.223C40.8468 190.891 39.3037 193.618 42.2951 194.179C43.3043 194.369 44.6586 193.928 44.3917 193.497C44.2855 193.324 44.3207 193.27 44.4768 193.366C44.8327 193.587 46.6592 191.548 46.4333 191.182C46.336 191.025 46.3712 190.968 46.5114 191.054C46.6516 191.141 48.3687 189.542 50.3271 187.502C55.216 182.41 54.3712 182.785 60.9581 182.78C67.4458 182.776 67.1181 182.901 67.0202 180.458L66.944 178.56L55.7811 178.422L55.0906 177.705C53.4835 176.036 49.6128 171.754 47.9955 169.856C44.409 165.647 44.0845 165.376 42.6311 165.376C41.6192 165.376 41.2704 165.486 41.0215 165.885ZM21.504 194.56H23.4087C25.8605 194.56 25.728 194.926 25.728 188.16V182.4L32.1235 182.332C39.8791 182.248 39.417 182.115 38.352 184.126C36.8346 186.993 33.7434 189.65 31.4189 190.086C30.3194 190.292 30.0211 191.14 30.3277 193.184L30.5043 194.365L31.8285 194.191C37.8925 193.399 46.7584 182.273 44.2855 178.56C44.0039 178.138 43.2576 176.735 42.6272 175.445C39.9245 169.912 34.4295 165.287 31.024 165.681C29.7587 165.827 29.9245 169.984 31.1955 169.984C33.2794 169.984 39.168 175.923 39.168 178.024C39.168 178.112 36.144 178.154 32.448 178.117L25.728 178.048L25.5911 165.632H21.504V194.56ZM31.808 181.95C30.7872 181.999 29.1168 181.999 28.096 181.95C27.0752 181.901 27.9104 181.862 29.952 181.862C31.9936 181.862 32.8288 181.901 31.808 181.95ZM133.312 194.986L132.608 195.106V203.264H133.45C133.913 203.264 134.691 203.061 135.178 202.812C136.013 202.386 143.206 195.345 143.009 195.148C142.861 195 134.088 194.854 133.312 194.986ZM186.87 220.213C186.524 220.34 185.894 220.773 185.472 221.176C162.88 239.04 132.608 242.56 132.608 242.56V245.76C132.608 245.76 162.565 241.715 183.933 227.604C189.494 223.931 190.476 222.662 189.059 220.979C188.314 220.092 187.741 219.892 186.87 220.213Z" fill="#007BFF"/>
<path fill-rule="evenodd" clip-rule="evenodd" d="M222.871 99.776C224.26 103.002 226.393 109.997 226.948 113.153C227.104 114.042 227.092 114.056 225.489 114.849C221.318 116.912 218.463 120.117 217.08 124.288C216.754 125.274 216.334 126.443 216.147 126.886C215.703 127.942 215.713 130.426 216.163 131.145C216.358 131.457 216.596 132.173 216.692 132.736C217.366 136.711 222.061 142.293 226.145 143.976L227.138 144.385L226.968 145.663C226.774 147.13 225.247 151.867 223.711 155.771C222.4 159.1 222.438 159.232 224.72 159.232H226.48L227.779 156.48C228.909 154.086 230.544 149.374 231.409 146.022L231.679 144.972L233.81 144.808C242.749 144.121 249.345 135.815 248.1 126.816C247.089 119.512 241.146 114.242 233.072 113.488C231.766 113.366 231.424 113.245 231.424 112.907C231.424 112.381 230.592 109.152 229.706 106.24C229.342 105.043 228.493 102.883 227.819 101.44L226.596 98.816H222.457L222.871 99.776ZM234.979 118.031C243.764 120.057 246.849 130.772 240.486 137.157C233.711 143.954 222.853 140.413 220.749 130.719C219.147 123.336 227.126 116.221 234.979 118.031ZM230.735 125.542C226.806 127.401 227.978 133.213 232.273 133.175C237.666 133.126 238.144 126.037 232.821 125.052C232.314 124.959 231.625 125.12 230.735 125.542Z" fill="#007BFF"/>
<path fill-rule="evenodd" clip-rule="evenodd" d="M197.248 204.122C188.043 206.78 190.9 220.594 200.377 219.253C206.437 218.395 209.283 211.751 205.702 206.819C203.96 204.417 200.285 203.245 197.248 204.122ZM201.42 208.632C202.735 209.584 203.008 210.093 203.008 211.592C203.008 215.272 198.558 216.538 196.305 213.498C194.028 210.425 198.293 206.367 201.42 208.632Z" fill="#007BFF"/>
<path fill-rule="evenodd" clip-rule="evenodd" d="M160.439 123.374C159.306 124.101 158.993 124.697 158.984 126.148C158.959 130.379 165.199 130.763 165.55 126.552C165.785 123.738 162.783 121.872 160.439 123.374ZM152.584 126.486C151.189 127.424 149.248 129.165 149.248 129.478C149.248 129.801 151.142 132.483 152.499 134.08C155.187 137.246 163.81 138.936 167.338 136.989C167.596 136.846 168.251 136.533 168.792 136.292C170.775 135.411 175.064 130.541 174.805 129.462C174.715 129.087 170.961 125.658 170.808 125.811C170.759 125.86 170.552 126.612 170.349 127.482C168.353 136.042 155.798 135.711 154.005 127.05L153.728 125.717L152.584 126.486Z" fill="#007BFF"/>
<path fill-rule="evenodd" clip-rule="evenodd" d="M222.871 99.776C224.26 103.002 226.393 109.997 226.948 113.153C227.104 114.042 227.092 114.056 225.489 114.849C221.318 116.912 218.463 120.117 217.08 124.288C216.754 125.274 216.334 126.443 216.147 126.886C215.703 127.942 215.713 130.426 216.163 131.145C216.358 131.457 216.596 132.173 216.692 132.736C217.366 136.711 222.061 142.293 226.145 143.976L227.138 144.385L226.968 145.663C226.774 147.13 225.247 151.867 223.711 155.771C222.4 159.1 222.438 159.232 224.72 159.232H226.48L227.779 156.48C228.909 154.086 230.544 149.374 231.409 146.022L231.679 144.972L233.81 144.808C242.749 144.121 249.345 135.815 248.1 126.816C247.089 119.512 241.146 114.242 233.072 113.488C231.766 113.366 231.424 113.245 231.424 112.907C231.424 112.381 230.592 109.152 229.706 106.24C229.342 105.043 228.493 102.883 227.819 101.44L226.596 98.816H222.457L222.871 99.776ZM234.979 118.031C243.764 120.057 246.849 130.772 240.486 137.157C233.711 143.954 222.853 140.413 220.749 130.719C219.147 123.336 227.126 116.221 234.979 118.031ZM230.735 125.542C226.806 127.401 227.978 133.213 232.273 133.175C237.666 133.126 238.144 126.037 232.821 125.052C232.314 124.959 231.625 125.12 230.735 125.542Z" fill="#007BFF"/>
<path fill-rule="evenodd" clip-rule="evenodd" d="M116.48 14.0832C110.166 14.7265 99.7978 16.7815 88.576 20.8787C78.4582 24.5722 63.2115 34.4519 63.8291 36.9133C64.4179 39.257 65.7869 39.3056 68.5011 37.0784C70.7827 35.2071 75.2717 32.2151 78.72 30.2675C81.5034 28.6957 88.985 25.088 89.4605 25.088C89.5526 25.088 90.137 24.8563 90.7584 24.5728C93.4176 23.3613 107.84 17.6 125.697 17.92V13.76C125.697 13.76 122.794 13.44 116.48 14.0832ZM120.448 34.6784C99.4387 38.9389 79.9379 54.3879 72.6112 72.576C68.4429 82.9242 68.2374 84.8519 68.2298 113.664C68.2227 140.467 68.0992 139.185 72.0646 153.472C72.416 154.739 73.2806 158.31 73.9853 161.408C78.2918 180.33 79.9866 185.888 83.7024 193.28C86.8154 199.472 92.1517 207.475 95.488 210.956C95.6992 211.176 96.5056 212.081 97.28 212.967C103.7 220.315 111.852 224.437 121.668 225.3C123.465 225.459 125.107 225.522 125.316 225.442C125.64 225.318 125.696 224.187 125.696 217.736V210.176H124.475C120.392 210.176 115.535 207.187 113.667 203.526C113.022 202.262 113.14 202.21 115.328 202.784C119.216 203.805 121.565 204.017 124.515 203.612L125.708 203.449L125.638 199.196L125.568 194.944H121.984C118.306 194.944 116.872 195.352 116.088 196.621C115.886 196.947 110.384 196.705 109.376 196.326C108.564 196.02 108.584 194.381 109.416 193.063C111.507 189.75 115.165 188.223 121.676 187.943L125.568 187.776L125.638 183.141L125.708 178.506L123.681 178.337C115.13 177.624 110.498 171.213 112.56 162.944C112.771 162.099 113.239 160.544 113.601 159.488C113.964 158.432 114.517 156.819 114.832 155.904C117.14 149.196 120.862 139.98 121.326 139.825C121.641 139.72 121.587 141.089 121.079 146.176C120.946 147.514 120.721 151.012 120.58 153.95C120.358 158.599 120.221 159.692 119.523 162.374C118.124 167.756 119.692 170.721 123.997 170.838L125.568 170.88L125.633 102.464L125.697 34.048L124.481 34.0781C123.811 34.0941 121.997 34.3648 120.448 34.6784ZM51.8208 40.7187C46.4077 42.8013 44.9466 49.3677 49.0042 53.3786C55.4362 59.737 65.6339 52.3066 61.4803 44.288C59.7702 40.9869 55.3594 39.3568 51.8208 40.7187ZM56.576 45.0413C58.8448 46.6208 58.8838 49.4144 56.6586 50.9389C54.2278 52.6048 50.7782 50.8474 50.841 47.9744C50.9011 45.193 54.2982 43.456 56.576 45.0413ZM26.4096 63.6186C17.9315 65.1546 11.4215 73.1437 12.9908 80.0877C14.169 85.3031 18.649 89.9578 24.2387 91.776C26.3373 92.4589 37.1418 92.2195 39.2499 91.4432C41.7101 90.5383 43.6538 89.1859 45.5014 87.0957C51.3779 80.4442 52.3398 79.7907 56.448 79.6627C59.7894 79.5591 60.4403 79.2947 60.7898 77.9008C61.2749 75.968 59.5872 75.2282 54.8979 75.3197L51.1782 75.392L49.2051 73.3395C48.1197 72.2112 46.5741 70.4608 45.7702 69.4503C41.6915 64.3219 34.4941 62.1543 26.4096 63.6186ZM36.352 67.8816C39.735 68.9555 42.7565 71.5168 44.3878 74.6925C44.967 75.8202 45.0931 75.7978 38.5376 75.7171L32.9274 75.648L32.4582 72.704C32.201 71.0848 31.8067 69.2794 31.5834 68.6919C31.36 68.1043 31.241 67.52 31.319 67.3946C31.5501 67.0208 34.56 67.312 36.352 67.8816ZM27.4125 68.352C27.7856 69.6243 28.487 74.9658 28.3334 75.3658C28.1536 75.8343 17.577 76.0007 17.2922 75.5399C17.2116 75.4099 17.8317 74.4019 18.6695 73.2999C21.8055 69.1744 26.8205 66.336 27.4125 68.352ZM28.2624 80.0263C28.5011 80.6471 27.4176 87.6275 27.0202 88.0295C25.4573 89.6103 17.1521 82.7559 17.1521 79.8848C17.1521 79.3888 28.0717 79.5277 28.2624 80.0263ZM42.5773 79.8707C45.7773 79.872 45.7491 79.8259 44.1165 82.3853C41.6243 86.2925 38.0806 88.2746 33.4598 88.3463C30.7162 88.3885 30.8461 88.5255 31.5949 86.3789C31.9341 85.4048 32.3558 83.6288 32.5318 82.432C32.9779 79.3997 32.8083 79.513 36.6054 79.7069C38.3667 79.7965 41.0541 79.8701 42.5773 79.8707ZM30.745 99.2928C29.4618 101.094 28.0186 104.776 26.4832 110.161C25.4502 113.784 25.7101 113.427 24.023 113.534C4.99263 114.737 4.40703 143.247 23.3805 144.787L25.5744 144.964L25.7408 145.762C26.3853 148.859 28.4762 154.822 29.9245 157.696L30.6336 159.104L32.464 159.088C34.8064 159.068 34.8186 159.048 33.9578 156.717C31.8349 150.97 30.2061 145.896 30.2106 145.045C30.2131 144.643 30.6861 144.264 32.1338 143.504C36.3354 141.298 39.2013 137.717 40.711 132.787L41.2442 131.046L50.7091 131.093C59.6486 131.137 60.2035 131.112 60.7136 130.657C62.2803 129.261 61.9584 127.204 60.0941 126.702C59.4336 126.524 56.2618 126.495 50.5978 126.616C40.8819 126.822 41.1706 126.873 40.6938 124.884C39.6845 120.677 36.0461 116.572 31.6333 114.662C30.8544 114.324 30.2189 113.933 30.2221 113.792C30.2285 113.492 31.5232 108.278 32.0979 106.24C32.3162 105.466 33.0176 103.516 33.6557 101.908C35.095 98.2822 35.1456 98.56 33.0413 98.56C31.3811 98.56 31.2333 98.6074 30.745 99.2928ZM60.0186 99.703C59.6038 99.879 58.6906 100.76 57.9904 101.66C57.2896 102.559 55.689 104.621 54.432 106.24C53.1757 107.859 52.0781 109.242 51.9936 109.312C51.9085 109.382 51.1648 110.274 50.3405 111.293C48.3021 113.814 46.2778 115.64 44.0563 116.96C39.5891 119.613 41.5802 122.714 46.336 120.51C48.9338 119.307 50.9958 117.426 54.1235 113.408C55.0547 112.211 57.2582 109.406 59.0195 107.174C62.9395 102.207 63.1219 101.889 62.6157 100.909C61.9456 99.6141 61.1258 99.2333 60.0186 99.703ZM105.728 107.292C114.051 108.982 121.11 115.727 117.907 118.931C116.595 120.242 115.411 120.003 113.551 118.054C111.973 116.399 109.506 115.014 106.836 114.284C106.015 114.059 104.883 113.75 104.32 113.596C102.065 112.98 93.0842 113.227 90.112 113.987C85.3536 115.202 83.849 115.944 81.2352 118.364C78.8806 120.544 77.4125 120.467 76.2688 118.104L75.7485 117.029L76.3802 115.783C80.0256 108.589 93.2576 104.76 105.728 107.292ZM101.894 117.772C108.138 118.542 116.785 123.937 118.891 128.376C119.725 130.133 117.596 134.611 114.611 137.375C104.513 146.728 86.0026 144.459 79.7184 133.098C77.4784 129.049 77.6352 127.981 80.9408 124.771C86.5542 119.32 94.0762 116.807 101.894 117.772ZM27.8752 118.031C34.3405 119.522 38.3475 126.374 36.247 132.347C33.6173 139.827 26.0378 142.852 19.4983 139.033C7.96231 132.295 14.8499 115.028 27.8752 118.031ZM96.8179 123.641C93.5706 125.994 96.3034 130.574 100.19 129.292C101.949 128.711 102.816 126.581 101.964 124.933C100.9 122.873 98.656 122.31 96.8179 123.641ZM23.2883 125.504C20.3501 126.988 20.0339 130.497 22.6579 132.499C24.4019 133.829 27.0515 133.375 28.4307 131.509C30.8723 128.207 26.9664 123.646 23.2883 125.504ZM87.7798 127.296C85.1277 129.274 85.1091 129.371 86.9434 131.658C90.6477 136.276 93.1597 137.522 98.816 137.544C104.232 137.565 107.974 135.661 111.67 131.002L112.436 130.036L111.776 129.171C111.044 128.211 107.83 125.702 107.328 125.699C107.128 125.697 107.008 126.058 107.008 126.656C107.007 130.252 102.93 133.739 98.7706 133.7C94.5971 133.66 90.4442 130.109 90.3821 126.528C90.3629 125.416 90.2598 125.446 87.7798 127.296ZM43.904 136.754C42.3392 137.641 42.6138 138.892 44.864 141.133C46.9683 143.228 57.7101 156.783 60.2918 160.601C61.945 163.047 63.6717 163.765 64.976 162.55C66.1107 161.492 65.785 160.405 63.424 157.37C62.2624 155.876 60.3328 153.374 59.136 151.81C57.9392 150.246 56.4915 148.367 55.9194 147.635C55.3472 146.903 54.0454 145.21 53.0272 143.872C48.2605 137.613 45.7888 135.685 43.904 136.754ZM211.71 167.744C211.704 171.455 211.472 172.246 210.074 173.327C209.356 173.882 207.578 175.258 206.124 176.385L203.481 178.432L196.14 178.436C192.103 178.438 188.639 178.541 188.443 178.666C188.075 178.899 188.141 181.875 188.527 182.501C188.648 182.697 191.004 182.785 196.175 182.789L203.648 182.794L205.824 184.604C207.021 185.599 208.616 186.945 209.368 187.596C210.12 188.246 210.895 188.899 211.09 189.045C211.34 189.234 211.464 190.06 211.514 191.872L211.584 194.432H216.576H221.568L221.644 192.576C221.71 190.931 221.666 190.72 221.257 190.72C220.351 190.72 218.178 189.318 214.144 186.13C211.891 184.349 209.443 182.455 208.704 181.921C207.965 181.386 207.36 180.904 207.36 180.849C207.36 180.168 220.452 170.496 221.374 170.496C221.604 170.496 221.696 169.948 221.696 168.576V166.656H216.704H211.712L211.71 167.744ZM227.841 168.64L227.841 170.624L229.258 171.364C236.926 175.371 236.99 185.805 229.372 189.809L227.562 190.759L227.637 192.596L227.712 194.432H232.704H237.696L237.762 180.544L237.828 166.656H232.834H227.84L227.841 168.64ZM222.038 175.127C220.774 175.613 215.04 180.207 215.04 180.734C215.04 181.252 220.771 185.841 221.896 186.225C226.095 187.656 230.451 184.867 230.451 180.749C230.451 176.387 226.182 173.533 222.038 175.127ZM197.248 204.122C188.044 206.78 190.9 220.594 200.377 219.252C206.437 218.395 209.283 211.751 205.702 206.819C203.96 204.417 200.285 203.245 197.248 204.122ZM201.42 208.632C202.735 209.584 203.008 210.093 203.008 211.592C203.008 215.272 198.558 216.538 196.305 213.498C194.028 210.425 198.293 206.367 201.42 208.632ZM56.3002 215.276C54.935 216.642 55.4202 217.766 58.1581 219.58C58.9581 220.11 61.2621 221.757 63.2781 223.241C70.137 228.286 107.84 243.84 125.696 245.76V242.56C96 237.231 70.0787 223.244 64.512 219.164C64.0192 218.803 62.5088 217.612 61.1552 216.518C58.3034 214.211 57.5565 214.02 56.3002 215.276Z" fill="#E5F3EC"/>
</svg>
