<svg width="512" height="512" viewBox="0 0 512 512" fill="none" xmlns="http://www.w3.org/2000/svg">
<path fill-rule="evenodd" clip-rule="evenodd" d="M264.96 27.52V35.8402C288 35.8402 343.042 45.5681 390.144 86.569C394.163 90.0685 395.462 90.7879 396.947 90.3373C399.688 89.5079 401.06 86.8365 400.07 84.2586C399.778 83.4983 386.435 72.6695 380.672 68.5172C351.75 47.6737 312.96 29.44 264.96 27.52ZM445.742 199.552C448.521 206.003 452.786 219.994 453.896 226.305C454.208 228.085 454.184 228.113 450.977 229.699C442.635 233.824 436.925 240.233 434.161 248.576C433.508 250.547 432.668 252.886 432.294 253.773C431.406 255.885 431.425 260.851 432.326 262.29C432.717 262.913 433.193 264.346 433.385 265.472C434.733 273.422 444.122 284.586 452.289 287.953L454.276 288.771L453.937 291.326C453.547 294.259 450.493 303.734 447.421 311.542C444.8 318.2 444.877 318.464 449.44 318.464H452.96L455.558 312.96C457.818 308.173 461.088 298.748 462.817 292.044L463.359 289.943L467.62 289.615C485.498 288.242 498.691 271.63 496.2 253.632C494.178 239.025 482.291 228.484 466.144 226.976C463.531 226.732 462.848 226.491 462.848 225.814C462.848 224.763 461.184 218.304 459.412 212.48C458.684 210.086 456.987 205.766 455.639 202.88L453.192 197.632H444.914L445.742 199.552ZM469.958 236.063C487.529 240.114 493.699 261.544 480.971 274.313C467.421 287.908 445.706 280.826 441.499 261.439C438.294 246.671 454.253 232.442 469.958 236.063ZM320.878 246.748C318.611 248.201 317.985 249.394 317.969 252.296C317.918 260.758 330.397 261.526 331.1 253.103C331.57 247.477 325.567 243.744 320.878 246.748ZM461.469 251.084C453.613 254.802 455.956 266.427 464.547 266.35C475.332 266.253 476.288 252.073 465.642 250.104C464.628 249.918 463.25 250.24 461.469 251.084ZM305.167 252.973C302.378 254.848 298.496 258.331 298.496 258.957C298.496 259.602 302.285 264.966 304.997 268.16C310.373 274.492 327.62 277.873 334.675 273.978C335.192 273.692 336.502 273.065 337.583 272.584C341.55 270.822 350.127 261.082 349.61 258.925C349.431 258.174 341.922 251.315 341.615 251.622C341.518 251.72 341.105 253.224 340.699 254.965C336.705 272.085 311.597 271.422 308.009 254.101L307.456 251.433L305.167 252.973ZM394.496 408.243C376.087 413.559 381.801 441.188 400.754 438.505C412.874 436.79 418.565 423.502 411.405 413.637C407.919 408.833 400.571 406.49 394.496 408.243ZM402.84 417.263C405.469 419.168 406.016 420.187 406.016 423.183C406.016 430.545 397.116 433.077 392.61 426.997C388.056 420.85 396.586 412.734 402.84 417.263Z" fill="#007BFF"/>
<path fill-rule="evenodd" clip-rule="evenodd" d="M320.878 246.748C318.611 248.201 317.985 249.394 317.969 252.296C317.918 260.758 330.397 261.526 331.1 253.103C331.57 247.477 325.567 243.744 320.878 246.748ZM305.167 252.973C302.378 254.848 298.496 258.331 298.496 258.957C298.496 259.602 302.285 264.966 304.997 268.16C310.373 274.492 327.62 277.873 334.675 273.978C335.192 273.692 336.502 273.065 337.583 272.584C341.55 270.822 350.127 261.082 349.61 258.925C349.431 258.174 341.922 251.315 341.615 251.622C341.518 251.72 341.105 253.224 340.699 254.965C336.705 272.085 311.597 271.422 308.009 254.101L307.456 251.433L305.167 252.973Z" fill="#007BFF"/>
<path fill-rule="evenodd" clip-rule="evenodd" d="M264.704 75.7851L277.916 89.2199C285.183 96.6107 293.993 105.651 297.493 109.312C300.993 112.973 307.538 119.712 312.036 124.288L320.215 132.608H333.943L326.075 124.346C321.749 119.802 316.498 114.215 314.409 111.93C300.636 96.8718 291.548 86.6958 290.186 84.8065L289.129 83.3409L290.869 83.7095C296.047 84.8065 300.032 86.8583 300.032 88.4289C300.032 89.2852 302.939 92.0385 304.3 92.4711C305.687 92.9115 321.882 108.818 341.907 129.408L345.019 132.608H352.251C359.195 132.608 359.456 132.571 358.813 131.657C353.029 123.438 316.341 85.7678 309.775 81.307C299.026 74.0046 284.225 69.1278 270.234 68.2779L264.704 67.9425V75.7851ZM264.722 99.9681L264.74 107.264L270.482 113.462C278.264 121.863 289.773 134.023 297.216 141.709C300.595 145.199 303.425 148.232 303.506 148.449C303.587 148.667 294.889 157.498 284.178 168.074L264.704 187.303V195.027C264.704 199.276 264.867 202.752 265.066 202.752C265.265 202.752 268.778 199.471 272.874 195.461C276.969 191.452 285.619 182.981 292.096 176.638C298.573 170.294 306.291 162.865 309.248 160.128L314.624 155.153L351.11 155.136L353.222 157.496C358.988 163.937 373.76 178.712 373.76 178.037C373.76 172.282 368.897 155.183 365.027 147.328L363.829 144.896L315.648 144.891L302.336 130.966C295.014 123.306 285.874 113.804 282.025 109.848C278.176 105.892 272.899 100.41 270.299 97.6641C267.699 94.9185 265.376 92.6721 265.138 92.6721C264.899 92.6721 264.712 95.9553 264.722 99.9681ZM427.772 124.936C427.683 125.08 427.442 127.911 427.238 131.223L426.867 137.249L422.309 140.844C419.803 142.821 416.256 145.795 414.427 147.452L411.103 150.465L392.101 150.784L390.867 152.22C386.552 157.242 390.474 159.744 402.657 159.744H411.108L415.347 163.712C417.678 165.895 421.254 169.153 423.296 170.954L427.008 174.229L427.016 179.146C427.02 181.851 427.208 184.355 427.433 184.709C427.756 185.216 432.58 185.326 449.825 185.221L471.808 185.088L471.94 155.422C472.022 137.146 471.885 125.568 471.585 125.269C471.085 124.768 428.078 124.44 427.772 124.936ZM453.336 134.593C453.49 134.839 449.949 139.611 445.469 145.194C438.307 154.125 437.393 155.473 437.882 156.388C438.404 157.365 444.063 164.028 451.43 172.347L454.657 175.989L452.28 176.315C450.975 176.494 448.438 176.64 446.645 176.64H443.383L438.7 172.416C436.123 170.093 431.459 165.973 428.335 163.262C420.356 156.333 418.478 154.599 419.119 154.748C419.85 154.92 438.06 139.294 437.875 138.654C437.798 138.385 437.919 138.279 438.145 138.418C438.371 138.556 439.701 137.662 441.101 136.428L443.648 134.184L448.353 134.163C450.941 134.153 453.184 134.346 453.336 134.593ZM404.073 159.1C402.02 159.198 398.794 159.198 396.905 159.099C395.017 159 396.698 158.921 400.64 158.922C404.582 158.922 406.127 159.003 404.073 159.1ZM319.232 167.524C317.96 168.245 308.356 177.576 283.777 201.969L264.704 220.896V230.513C264.704 235.8 264.83 240.128 264.983 240.128C265.135 240.128 268.375 237.023 272.181 233.229C289.85 215.611 306.93 210.651 337.518 214.258C351.981 215.964 364.067 221.845 373.194 231.616C375.203 233.765 375.296 233.074 375.296 216.102C375.296 197.45 375.991 200.224 369.454 192.768C364.831 187.496 362.19 184.606 354.048 175.918C350.387 172.013 347.091 168.388 346.723 167.864C345.915 166.714 321.199 166.408 319.232 167.524ZM343.064 180.864C344.017 182.061 348.439 186.972 352.891 191.777C357.344 196.582 361.34 201.018 361.77 201.633L362.554 202.752H298.95L299.701 201.681C300.113 201.092 305.331 195.678 311.296 189.649L322.14 178.688H341.333L343.064 180.864ZM388.362 199.823C385.891 202.295 386.735 206.533 390.116 208.623C390.419 208.81 394.395 213.384 398.95 218.785C414.474 237.193 417.533 240.006 424.105 241.916C432.841 244.456 433.555 237.184 425.039 232.401C421.242 230.267 413.549 222.415 405.504 212.462C393.585 197.717 391.791 196.394 388.362 199.823ZM316.16 225.603C290.427 228.389 274.351 242.052 274.221 261.247C274.168 268.943 274.496 268.757 269.484 263.936C267.288 261.824 265.43 260.096 265.354 260.096C265.278 260.096 265.216 272.654 265.216 288.003V315.908L271.232 322.355C274.541 325.901 277.325 329.01 277.418 329.265C277.514 329.525 274.878 329.728 271.402 329.728H265.216V341.025L287.918 340.919L298.583 351.575C304.449 357.436 309.248 362.405 309.248 362.619C309.248 362.833 302.828 363.008 294.98 363.008H280.71L280.462 359.134C280.11 353.649 279.999 353.574 271.875 353.368L265.254 353.199L265.107 364.632C265.027 370.92 264.969 376.111 264.979 376.169C264.991 376.227 275.301 376.437 287.891 376.635C300.483 376.832 310.784 377.056 310.784 377.132C310.784 377.207 308.307 379.642 305.28 382.543C302.253 385.445 292 395.601 282.496 405.112L265.216 422.405V450.692L269.334 450.334C278.569 449.527 287.593 445.82 296.595 439.132C298.444 437.759 312.963 423.232 334.412 401.295C349.171 386.2 350.838 384.657 353.1 383.977L355.584 383.232L355.863 363.875L347.226 355.218L349.662 353.097C351 351.931 354.802 348.691 358.108 345.9C365.519 339.642 366.572 337.525 366.591 328.832C366.592 328.383 365.558 328.192 363.125 328.192H359.658L354.523 332.672C347.139 339.114 344.813 341.011 341.705 343.121L338.947 344.993L326.305 332.113C319.354 325.028 306.679 312.32 298.139 303.872C284.209 290.09 282.614 288.344 282.619 286.879C282.622 285.98 282.394 285.102 282.112 284.928C281.507 284.554 281.416 282.112 282.008 282.112C282.232 282.112 283.327 283.054 284.44 284.205C295.046 295.173 306.614 298.654 329.405 297.733C373.23 295.963 389.655 249.951 352.955 231.761C343.669 227.158 327.219 224.405 316.16 225.603ZM333.312 236.568C349.842 240.521 363.049 251.966 361.422 260.928C360.209 267.615 355.158 274.376 345.025 282.878L340.445 286.72H321.061C299.395 286.72 301.056 287.038 301.056 282.901C301.056 280.837 300.853 280.522 297.76 277.807C287.19 268.527 283.624 258.834 288.325 252.16C296.991 239.857 317.434 232.771 333.312 236.568ZM432.64 252.074C432.64 252.856 431 252.928 413.158 252.928C390.107 252.928 390.144 252.92 390.144 257.781C390.144 259.082 390.565 259.848 391.954 261.068L393.764 262.656H432.161L432.625 263.808C432.911 264.524 433.1 264.658 433.12 264.161C433.138 263.724 432.814 262.917 432.401 262.369C431.366 261.004 431.397 255.849 432.451 253.627C432.91 252.659 433.141 251.722 432.963 251.544C432.786 251.366 432.64 251.606 432.64 252.074ZM421.216 273.971C418.141 275.594 412.841 281.39 404.477 292.275C392.649 307.67 389.165 312.123 385.418 316.626C381.549 321.276 381.057 323.077 383.128 325.023C385.912 327.639 389.961 326.73 392.78 322.858C393.724 321.562 395.878 318.687 397.568 316.469C399.258 314.252 404.033 307.976 408.179 302.523C417.999 289.61 421.528 285.463 424.96 282.806C430.747 278.322 431.186 277.361 428.754 274.472C427.137 272.55 424.27 272.36 421.216 273.971ZM277.26 296.448C278.303 297.715 283.461 303.245 288.723 308.736C301.86 322.449 316.58 338.124 327.168 349.676C330.125 352.902 334.447 357.592 336.772 360.099C339.098 362.605 341.101 365.15 341.225 365.752C341.348 366.355 341.589 367.932 341.76 369.258C341.998 371.098 342.441 371.98 343.633 372.982L345.193 374.294L343.281 376.627C342.23 377.911 336.398 384.069 330.323 390.312C324.248 396.556 316.271 404.787 312.599 408.603C308.926 412.42 303.542 418.007 300.634 421.019L295.349 426.496H286.968C281.877 426.496 278.463 426.293 278.268 425.979C277.901 425.384 281.889 421.217 309.76 393.077C320.883 381.846 330.177 372.314 330.413 371.894C331.363 370.203 327.895 366.194 304.124 341.504C297.752 334.886 288.466 325.228 283.486 320.038L274.432 310.605V301.888C274.432 296.658 274.618 293.366 274.897 293.658C275.151 293.925 276.215 295.181 277.26 296.448ZM327.398 306.628C327.272 306.755 327.168 309.47 327.168 312.662V318.464H369.078L369.356 315.776C369.509 314.298 369.777 311.511 369.951 309.585L370.268 306.081L348.949 306.24C337.222 306.327 327.525 306.501 327.398 306.628ZM82.0429 331.77C80.8346 333.704 81.2737 336.04 83.3037 338.468C85.1841 340.718 91.7773 348.104 96.2983 353.024C97.5924 354.432 99.6314 356.671 100.829 357.998L103.008 360.411L96.9895 366.446C81.6935 381.782 78.6074 387.236 84.5901 388.358C86.6087 388.737 89.3172 387.857 88.7834 386.994C88.5709 386.648 88.6413 386.54 88.9537 386.733C89.6653 387.173 93.3185 383.095 92.8666 382.364C92.6721 382.051 92.7425 381.935 93.0228 382.108C93.3031 382.282 96.7373 379.085 100.654 375.004C110.432 364.819 108.742 365.569 121.916 365.56C134.892 365.551 134.236 365.802 134.04 360.915L133.888 357.12L111.562 356.844L110.181 355.41C106.967 352.072 99.2257 343.509 95.9911 339.712C88.818 331.295 88.169 330.752 85.2621 330.752C83.2385 330.752 82.5409 330.972 82.0429 331.77ZM43.0081 389.12H46.8173C51.721 389.12 51.4561 389.852 51.4561 376.32V364.8L64.2471 364.663C79.7581 364.497 78.834 364.23 76.7041 368.252C73.6692 373.985 67.4868 379.3 62.8378 380.172C60.6388 380.584 60.0423 382.28 60.6554 386.368L61.0087 388.73L63.657 388.383C75.785 386.798 93.5169 364.547 88.5709 357.12C88.0077 356.275 86.5153 353.471 85.2545 350.889C79.849 339.823 68.8589 330.574 62.0481 331.361C59.5175 331.653 59.849 339.968 62.3911 339.968C66.5588 339.968 78.3361 351.845 78.3361 356.049C78.3361 356.224 72.2881 356.307 64.8961 356.233L51.4561 356.096L51.1821 331.264H43.0081V389.12ZM63.6161 363.9C61.5745 363.998 58.2337 363.998 56.1921 363.9C54.1505 363.803 55.8209 363.724 59.9041 363.724C63.9873 363.724 65.6577 363.803 63.6161 363.9ZM266.624 389.973L265.216 390.212V406.528H266.899C267.826 406.528 269.381 406.121 270.355 405.623C272.026 404.772 286.413 390.691 286.017 390.295C285.723 389.999 268.177 389.709 266.624 389.973ZM373.741 440.425C373.047 440.68 371.789 441.546 370.944 442.351C325.76 478.08 265.216 485.12 265.216 485.12V491.52C265.216 491.52 325.129 483.429 367.866 455.208C378.989 447.862 380.952 445.325 378.118 441.957C376.627 440.184 375.483 439.784 373.741 440.425Z" fill="#007BFF"/>
<path fill-rule="evenodd" clip-rule="evenodd" d="M445.742 199.552C448.521 206.003 452.786 219.994 453.896 226.305C454.208 228.085 454.184 228.113 450.977 229.699C442.635 233.824 436.925 240.233 434.161 248.576C433.508 250.547 432.668 252.886 432.294 253.773C431.406 255.885 431.425 260.851 432.326 262.29C432.717 262.913 433.193 264.346 433.385 265.472C434.733 273.422 444.122 284.586 452.289 287.953L454.276 288.771L453.937 291.326C453.547 294.259 450.493 303.734 447.421 311.542C444.8 318.2 444.877 318.464 449.44 318.464H452.96L455.558 312.96C457.818 308.173 461.088 298.748 462.817 292.044L463.359 289.943L467.62 289.615C485.498 288.242 498.691 271.63 496.2 253.632C494.178 239.025 482.291 228.484 466.144 226.976C463.531 226.732 462.848 226.491 462.848 225.814C462.848 224.763 461.184 218.304 459.412 212.48C458.684 210.086 456.987 205.766 455.639 202.88L453.192 197.632H444.914L445.742 199.552ZM469.958 236.063C487.529 240.114 493.699 261.544 480.971 274.313C467.421 287.908 445.706 280.826 441.499 261.439C438.294 246.671 454.253 232.442 469.958 236.063ZM461.469 251.084C453.613 254.802 455.956 266.427 464.547 266.35C475.332 266.253 476.288 252.073 465.642 250.104C464.628 249.918 463.25 250.24 461.469 251.084Z" fill="#007BFF"/>
<path fill-rule="evenodd" clip-rule="evenodd" d="M394.496 408.243C376.087 413.559 381.801 441.188 400.754 438.505C412.874 436.79 418.565 423.502 411.405 413.637C407.919 408.833 400.571 406.49 394.496 408.243ZM402.84 417.263C405.469 419.168 406.016 420.187 406.016 423.183C406.016 430.545 397.116 433.077 392.61 426.997C388.056 420.85 396.586 412.734 402.84 417.263Z" fill="#007BFF"/>
<path fill-rule="evenodd" clip-rule="evenodd" d="M320.878 246.748C318.611 248.201 317.985 249.394 317.969 252.296C317.918 260.758 330.397 261.526 331.1 253.103C331.57 247.477 325.567 243.744 320.878 246.748ZM305.167 252.973C302.378 254.848 298.496 258.331 298.496 258.957C298.496 259.602 302.285 264.966 304.997 268.16C310.373 274.492 327.62 277.873 334.675 273.978C335.192 273.692 336.502 273.065 337.583 272.584C341.55 270.822 350.127 261.082 349.61 258.925C349.431 258.174 341.922 251.315 341.615 251.622C341.518 251.72 341.105 253.224 340.699 254.965C336.705 272.085 311.597 271.422 308.009 254.101L307.456 251.433L305.167 252.973Z" fill="#007BFF"/>
<path fill-rule="evenodd" clip-rule="evenodd" d="M445.742 199.552C448.521 206.003 452.786 219.994 453.896 226.305C454.208 228.085 454.184 228.113 450.977 229.699C442.635 233.824 436.925 240.233 434.161 248.576C433.508 250.547 432.668 252.886 432.294 253.773C431.406 255.885 431.425 260.851 432.326 262.29C432.717 262.913 433.193 264.346 433.385 265.472C434.733 273.422 444.122 284.586 452.289 287.953L454.276 288.771L453.937 291.326C453.547 294.259 450.493 303.734 447.421 311.542C444.8 318.2 444.877 318.464 449.44 318.464H452.96L455.558 312.96C457.818 308.173 461.088 298.748 462.817 292.044L463.359 289.943L467.62 289.615C485.498 288.242 498.691 271.63 496.2 253.632C494.178 239.025 482.291 228.484 466.144 226.976C463.531 226.732 462.848 226.491 462.848 225.814C462.848 224.763 461.184 218.304 459.412 212.48C458.684 210.086 456.987 205.766 455.639 202.88L453.192 197.632H444.914L445.742 199.552ZM469.958 236.063C487.529 240.114 493.699 261.544 480.971 274.313C467.421 287.908 445.706 280.826 441.499 261.439C438.294 246.671 454.253 232.442 469.958 236.063ZM461.469 251.084C453.613 254.802 455.956 266.427 464.547 266.35C475.332 266.253 476.288 252.073 465.642 250.104C464.628 249.918 463.25 250.24 461.469 251.084Z" fill="#007BFF"/>
<path fill-rule="evenodd" clip-rule="evenodd" d="M232.96 28.1665C220.331 29.4529 199.596 33.5629 177.152 41.7575C156.916 49.1444 126.423 68.9037 127.658 73.8266C128.836 78.514 131.574 78.6113 137.002 74.1569C141.565 70.4141 150.543 64.4301 157.44 60.5351C163.007 57.3914 177.97 50.1761 178.921 50.1761C179.105 50.1761 180.274 49.7127 181.517 49.1457C186.835 46.7226 215.68 35.1999 251.393 35.8401V27.5201C251.393 27.5201 245.589 26.88 232.96 28.1665ZM240.896 69.3569C198.877 77.8778 159.876 108.776 145.222 145.152C136.886 165.848 136.475 169.704 136.46 227.328C136.445 280.933 136.198 278.369 144.129 306.944C144.832 309.478 146.561 316.621 147.971 322.816C156.584 360.66 159.973 371.776 167.405 386.56C173.631 398.944 184.303 414.95 190.976 421.911C191.398 422.351 193.011 424.163 194.56 425.934C207.401 440.63 223.704 448.874 243.336 450.601C246.93 450.917 250.213 451.044 250.632 450.884C251.281 450.636 251.392 448.374 251.392 435.473V420.352H248.95C240.785 420.352 231.069 414.374 227.333 407.052C226.044 404.525 226.28 404.42 230.656 405.568C238.432 407.61 243.131 408.033 249.029 407.224L251.416 406.898L251.276 398.392L251.136 389.888H243.968C236.612 389.888 233.745 390.703 232.175 393.242C231.772 393.894 220.768 393.411 218.752 392.652C217.128 392.04 217.167 388.762 218.831 386.126C223.013 379.501 230.33 376.445 243.351 375.886L251.136 375.552L251.276 366.282L251.415 357.012L247.363 356.675C230.259 355.249 220.996 342.427 225.12 325.888C225.541 324.198 226.478 321.088 227.203 318.976C227.927 316.864 229.034 313.638 229.664 311.808C234.28 298.391 241.724 279.959 242.652 279.649C243.282 279.439 243.174 282.179 242.158 292.352C241.892 295.027 241.443 302.024 241.161 307.9C240.717 317.198 240.442 319.384 239.046 324.749C236.247 335.511 239.383 341.443 247.994 341.676L251.136 341.76L251.265 204.928L251.393 68.0961L248.961 68.1562C247.622 68.1882 243.994 68.7297 240.896 69.3569ZM103.642 81.4375C92.8154 85.6026 89.8931 98.7354 98.0083 106.757C110.872 119.474 131.268 104.613 122.961 88.576C119.54 81.9738 110.719 78.7137 103.642 81.4375ZM113.152 90.0826C117.69 93.2417 117.768 98.8289 113.317 101.878C108.456 105.21 101.556 101.695 101.682 95.9489C101.802 90.386 108.596 86.9121 113.152 90.0826ZM52.8192 127.237C35.863 130.309 22.843 146.287 25.9816 160.175C28.3381 170.606 37.2979 179.916 48.4774 183.552C52.6746 184.918 74.2835 184.439 78.4998 182.886C83.4202 181.077 87.3075 178.372 91.0029 174.191C102.756 160.888 104.68 159.581 112.896 159.325C119.579 159.118 120.881 158.589 121.58 155.802C122.55 151.936 119.174 150.456 109.796 150.639L102.356 150.784L98.4102 146.679C96.2394 144.422 93.1482 140.922 91.5405 138.901C83.383 128.644 68.9882 124.309 52.8192 127.237ZM72.704 135.763C79.4701 137.911 85.513 143.034 88.7757 149.385C89.9341 151.64 90.1862 151.596 77.0752 151.434L65.8547 151.296L64.9165 145.408C64.4019 142.17 63.6134 138.559 63.1667 137.384C62.72 136.209 62.4819 135.04 62.6381 134.789C63.1002 134.042 69.12 134.624 72.704 135.763ZM54.825 136.704C55.5712 139.249 56.9741 149.932 56.6669 150.732C56.3072 151.669 35.1541 152.001 34.5845 151.08C34.4232 150.82 35.6635 148.804 37.339 146.6C43.611 138.349 53.641 132.672 54.825 136.704ZM56.5248 160.053C57.0022 161.294 54.8352 175.255 54.0403 176.059C50.9146 179.221 34.3041 165.512 34.3041 159.77C34.3041 158.778 56.1434 159.055 56.5248 160.053ZM85.1546 159.741C91.5546 159.744 91.4982 159.652 88.233 164.771C83.2486 172.585 76.1613 176.549 66.9197 176.693C61.4323 176.777 61.6922 177.051 63.1898 172.758C63.8682 170.81 64.7117 167.258 65.0637 164.864C65.9558 158.799 65.6166 159.026 73.2109 159.414C76.7334 159.593 82.1082 159.74 85.1546 159.741ZM61.4899 198.586C58.9235 202.189 56.0371 209.551 52.9664 220.323C50.9005 227.567 51.4201 226.854 48.0461 227.068C9.98527 229.473 8.81407 286.493 46.761 289.573L51.1488 289.929L51.4816 291.524C52.7706 297.718 56.9523 309.645 59.849 315.392L61.2672 318.208L64.928 318.176C69.6128 318.135 69.6371 318.097 67.9155 313.434C63.6698 301.939 60.4122 291.791 60.4211 290.09C60.4262 289.286 61.3722 288.527 64.2675 287.008C72.6707 282.596 78.4026 275.434 81.4221 265.574L82.4883 262.093L101.418 262.186C119.297 262.273 120.407 262.225 121.427 261.315C124.561 258.522 123.917 254.409 120.188 253.404C118.867 253.048 112.524 252.991 101.196 253.231C81.7638 253.645 82.3411 253.746 81.3875 249.769C79.369 241.354 72.0922 233.144 63.2666 229.324C61.7088 228.648 60.4378 227.866 60.4442 227.584C60.457 226.984 63.0464 216.556 64.1958 212.48C64.6323 210.931 66.0352 207.032 67.3114 203.817C70.1901 196.564 70.2912 197.12 66.0826 197.12C62.7622 197.12 62.4666 197.215 61.4899 198.586ZM120.037 199.406C119.208 199.758 117.381 201.519 115.981 203.319C114.579 205.119 111.378 209.242 108.864 212.48C106.351 215.718 104.156 218.483 103.987 218.624C103.817 218.765 102.33 220.548 100.681 222.587C96.6042 227.629 92.5555 231.279 88.1126 233.92C79.1782 239.227 83.1603 245.428 92.672 241.02C97.8675 238.614 101.992 234.852 108.247 226.816C110.109 224.422 114.516 218.812 118.039 214.349C125.879 204.413 126.244 203.777 125.231 201.819C123.891 199.228 122.252 198.467 120.037 199.406ZM211.456 214.584C228.102 217.964 242.22 231.455 235.813 237.861C233.189 240.484 230.822 240.006 227.103 236.108C223.946 232.799 219.012 230.029 213.672 228.567C212.031 228.118 209.766 227.5 208.64 227.192C204.129 225.96 186.168 226.454 180.224 227.973C170.707 230.404 167.698 231.889 162.47 236.728C157.761 241.088 154.825 240.934 152.538 236.209L151.497 234.058L152.76 231.566C160.051 217.178 186.515 209.521 211.456 214.584ZM203.789 235.543C216.275 237.084 233.569 247.873 237.782 256.751C239.45 260.266 235.191 269.221 229.221 274.751C209.027 293.455 172.005 288.918 159.437 266.195C154.957 258.098 155.27 255.962 161.882 249.542C173.108 238.639 188.152 233.614 203.789 235.543ZM55.7504 236.063C68.681 239.044 76.695 252.748 72.4941 264.694C67.2346 279.653 52.0757 285.704 38.9966 278.066C15.9246 264.59 29.6998 230.057 55.7504 236.063ZM193.636 247.282C187.141 251.987 192.607 261.148 200.38 258.583C203.898 257.422 205.632 253.162 203.928 249.866C201.8 245.746 197.312 244.62 193.636 247.282ZM46.5766 251.008C40.7001 253.976 40.0678 260.995 45.3158 264.997C48.8038 267.658 54.103 266.749 56.8614 263.018C61.7446 256.413 53.9328 247.292 46.5766 251.008ZM175.56 254.592C170.255 258.548 170.218 258.742 173.887 263.316C181.295 272.553 186.319 275.044 197.632 275.087C208.465 275.13 215.949 271.322 223.34 262.004L224.872 260.073L223.552 258.342C222.088 256.422 215.661 251.405 214.656 251.397C214.257 251.393 214.016 252.115 214.016 253.312C214.015 260.504 205.86 267.478 197.541 267.4C189.194 267.32 180.888 260.219 180.764 253.056C180.726 250.831 180.52 250.893 175.56 254.592ZM87.808 273.508C84.6784 275.282 85.2275 277.784 89.728 282.266C93.9366 286.456 115.42 313.567 120.584 321.202C123.89 326.094 127.343 327.53 129.952 325.1C132.221 322.985 131.57 320.81 126.848 314.739C124.525 311.752 120.666 306.748 118.272 303.62C115.878 300.493 112.983 296.735 111.839 295.27C110.694 293.806 108.091 290.419 106.054 287.744C96.521 275.227 91.5776 271.37 87.808 273.508ZM423.42 335.488C423.407 342.911 422.944 344.492 420.147 346.655C418.711 347.764 415.156 350.517 412.248 352.769L406.962 356.864L392.28 356.872C384.206 356.876 377.279 357.083 376.886 357.332C376.15 357.798 376.282 363.75 377.055 365.002C377.297 365.394 382.007 365.571 392.351 365.578L407.296 365.587L411.648 369.207C414.042 371.197 417.231 373.891 418.735 375.191C420.241 376.493 421.789 377.797 422.18 378.09C422.68 378.468 422.929 380.119 423.027 383.744L423.168 388.864H433.152H443.136L443.287 385.152C443.42 381.862 443.332 381.44 442.514 381.44C440.701 381.44 436.356 378.636 428.288 372.26C423.782 368.699 418.886 364.91 417.408 363.841C415.93 362.771 414.72 361.807 414.72 361.699C414.72 360.337 440.904 340.992 442.748 340.992C443.208 340.992 443.392 339.895 443.392 337.152V333.312H433.408H423.424L423.42 335.488ZM455.681 337.28L455.683 341.248L458.517 342.729C473.852 350.742 473.98 371.611 458.743 379.617L455.125 381.518L455.274 385.192L455.424 388.864H465.408H475.392L475.524 361.088L475.657 333.312H465.668H455.68L455.681 337.28ZM444.076 350.254C441.549 351.226 430.08 360.415 430.08 361.468C430.08 362.504 441.541 371.683 443.793 372.451C452.189 375.311 460.902 369.734 460.902 361.499C460.902 352.774 452.364 347.067 444.076 350.254ZM394.496 408.243C376.087 413.559 381.801 441.188 400.754 438.505C412.874 436.79 418.565 423.502 411.405 413.637C407.919 408.833 400.571 406.49 394.496 408.243ZM402.84 417.263C405.469 419.168 406.016 420.187 406.016 423.183C406.016 430.545 397.116 433.076 392.611 426.996C388.056 420.85 396.586 412.733 402.84 417.263ZM112.6 430.552C109.87 433.284 110.84 435.532 116.316 439.16C117.916 440.22 122.524 443.515 126.556 446.482C140.274 456.572 215.68 487.68 251.392 491.52V485.12C192 474.462 140.157 446.488 129.024 438.328C128.038 437.606 125.018 435.224 122.31 433.036C116.607 428.422 115.113 428.041 112.6 430.552Z" fill="#E5F3EC"/>
</svg>
