<svg width="24" height="24" viewBox="0 0 877 877" fill="none" xmlns="http://www.w3.org/2000/svg">
<path d="M789.33 236.504C825.704 294.694 843.869 363.811 843.869 436.57C843.869 662.089 661.998 844.001 440.14 844.001C218.282 844.001 32.8125 662.103 32.8125 436.57C32.8125 211.037 214.684 32.7812 440.184 32.7812C481.048 32.7812 521.883 38.2374 560.393 51.4318C560.305 52.485 560.232 53.5382 560.232 54.5914C560.232 83.6863 582.039 105.497 611.13 105.497C636.579 105.497 658.429 83.6863 658.429 54.5914C658.429 29.1388 636.622 7.28472 611.13 7.28472C596.124 7.28472 583.048 13.1505 573.907 22.2637C532.063 8.22089 487.484 0 440.184 0C196.489 0.0438837 0.0800781 196.468 0.0800781 436.57C0.0800781 676.673 196.475 876.739 440.184 876.739C683.893 876.739 876.646 680.315 876.646 436.57C876.646 360.169 854.839 283.811 818.464 221.935L789.374 236.504H789.33Z" fill="white"/>
<path d="M491.096 567.534H276.492V647.578H494.694C578.324 647.578 625.624 596.673 625.624 512.986C625.624 429.3 563.801 392.964 509.261 392.964H392.899C363.808 392.964 349.241 378.395 349.241 356.585C349.241 331.132 363.808 312.92 392.899 312.92H607.503V232.876H389.301C305.671 232.876 258.371 280.183 258.371 363.826C258.371 447.468 323.836 480.205 374.734 480.205H491.096C523.829 480.205 545.636 498.373 545.636 520.227C545.636 545.68 523.829 567.534 491.096 567.534Z" fill="white"/>
</svg>
